<svg>
    <symbol id="icon-profil-c" xmlns="http://www.w3.org/2000/svg" fill="none" viewBox="0 0 368 120">
        <path fill="var(--c-secondary)" d="M316.981 0a59.676 59.676 0 0 1 35.142 11.381l-17.771 38.84c-5.154-2.592-11.073-4.068-17.369-4.068-19.956 0-36.135 14.81-36.135 33.076 0 18.268 16.179 33.078 36.135 33.078 15.205 0 28.214-8.598 33.55-20.768h17.472C357.436 108.619 338.539 120 316.983 120c-33.118 0-59.967-26.863-59.967-59.999C257.016 26.863 283.865 0 316.983 0h-.002Z"/>
        <path fill="currentColor" d="M66.062 76.911c0 1.713-.353 3.297-1.058 4.756a11.835 11.835 0 0 1-2.864 3.772c-1.206 1.056-2.623 1.886-4.254 2.488-1.631.603-3.375.903-5.229.903h-7.564v13.884H36.53V64.668h15.96c2.04 0 3.893.284 5.562.847 1.67.564 3.096 1.375 4.284 2.434a10.77 10.77 0 0 1 2.753 3.853c.65 1.512.974 3.216.974 5.111v-.002Zm-8.677-.163c0-1.531-.463-2.669-1.392-3.417-.925-.746-2.242-1.12-3.947-1.12h-6.953v9.074h7.176c1.408 0 2.614-.41 3.614-1.23 1-.821 1.502-1.923 1.502-3.307Zm26.362-12.353c2.336 0 4.44.374 6.312 1.12 1.873.747 3.466 1.776 4.782 3.089 1.317 1.312 2.327 2.88 3.032 4.7.705 1.822 1.057 3.79 1.057 5.903v8.965c0 2.26-.362 4.31-1.084 6.15-.724 1.84-1.743 3.408-3.057 4.701-1.317 1.293-2.912 2.287-4.783 2.98-1.873.694-3.957 1.039-6.257 1.039-2.52 0-4.717-.4-6.59-1.202-1.874-.801-3.43-1.886-4.672-3.254a13.366 13.366 0 0 1-2.78-4.756 17.507 17.507 0 0 1-.918-5.658v-8.965c0-1.967.306-3.844.918-5.629a13.42 13.42 0 0 1 2.78-4.73c1.242-1.367 2.799-2.45 4.672-3.253 1.873-.802 4.07-1.203 6.59-1.203l-.002.003Zm-.084 7.87c-1.084 0-2.012.173-2.792.519-.786.345-1.436.81-1.954 1.394a5.888 5.888 0 0 0-1.178 1.996 6.884 6.884 0 0 0-.389 2.268v10.333c0 .837.13 1.638.389 2.404a5.808 5.808 0 0 0 1.178 2.023c.518.583 1.168 1.058 1.954 1.42.78.365 1.705.547 2.792.547 2.084 0 3.698-.61 4.83-1.83 1.14-1.222 1.705-2.743 1.705-4.564V78.442c0-1.677-.566-3.124-1.705-4.346-1.132-1.221-2.744-1.83-4.83-1.83Zm58.814 11.096c0 2.15-.353 4.182-1.058 6.095-.705 1.912-1.715 3.59-3.031 5.03-1.317 1.44-2.938 2.579-4.867 3.416-1.928.838-4.115 1.275-6.561 1.313v3.499h-7.953v-3.499c-2.634-.218-4.912-.766-6.84-1.639s-3.523-2.004-4.782-3.388a13.052 13.052 0 0 1-2.782-4.838c-.593-1.84-.89-3.837-.89-5.987s.324-4.19.973-6.12c.648-1.932 1.612-3.636 2.893-5.112 1.278-1.476 2.873-2.651 4.782-3.525 1.909-.873 4.125-1.349 6.646-1.42V64.67h7.953v2.514c2.669.183 4.986.701 6.952 1.558 1.967.857 3.588 1.987 4.867 3.388 1.278 1.404 2.216 3.052 2.808 4.948.592 1.896.89 3.99.89 6.287v-.005Zm-15.517 9.238c1.595-.11 2.873-.42 3.837-.928.964-.511 1.705-1.176 2.223-1.997.518-.82.854-1.768 1.003-2.843.148-1.075.223-2.251.223-3.525 0-.984-.084-2.013-.25-3.088a8.57 8.57 0 0 0-1.057-3.007 6.866 6.866 0 0 0-2.226-2.323c-.945-.619-2.197-.965-3.753-1.039V92.6Zm-7.953-18.64c-2.559.33-4.394 1.284-5.507 2.87-1.113 1.587-1.631 3.744-1.556 6.48 0 1.276.11 2.45.333 3.524.223 1.075.593 2.014 1.113 2.815.518.801 1.233 1.459 2.142 1.968.909.51 2.067.837 3.475.983V73.96Zm29.698 28.755V64.668h8.565v23.833h.167l7.953-12.19 8.121-11.643h7.063v38.046h-8.564V79.699h-.168l-5.672 9.02-9.845 13.995h-7.62Zm104.337-11.588c0 3.789-1.197 6.76-3.588 8.91-2.391 2.15-5.72 3.225-9.985 3.225h-16.296V65.216h8.564V79.81h7.843c2.225 0 4.18.319 5.868.957 1.686.638 3.097 1.485 4.226 2.541 1.132 1.056 1.974 2.26 2.531 3.61.553 1.333.837 2.764.834 4.208h.003Zm-8.678.329c0-1.056-.388-2.004-1.168-2.841-.779-.838-2.076-1.258-3.892-1.258h-7.619v8.363h7.619c1.818 0 3.115-.437 3.892-1.313.78-.873 1.168-1.86 1.168-2.951ZM21.211 102.85V79.651c0-4.144-.252-7.326-6.248-7.326H8.55v30.525H0V64.803h19.525c5.137 0 10.128 4.396 10.128 10.291v27.756H21.21Zm173.65 0V79.651c0-4.144.252-7.326 6.247-7.326h6.414v30.525h8.549V64.803h-19.524c-5.14 0-10.128 4.396-10.128 10.291v27.756h8.442Z"/>
    </symbol>

    <symbol id="icon-map" xmlns="http://www.w3.org/2000/svg" fill="none" viewBox="0 0 18 21">
        <path stroke="currentColor" stroke-linejoin="round" stroke-width="3" d="M9 9h.01v.01H9z"/>
        <path fill="none" stroke="currentColor" stroke-linejoin="round" stroke-width="2" d="m9 20 5.5-5.5a7.778 7.778 0 1 0-11 0L9 20Z"/>
    </symbol>


    <symbol id="icon-work" xmlns="http://www.w3.org/2000/svg" fill="none" viewBox="0 0 20 20">
        <circle fill="none" cx="10" cy="10" r="9" stroke="currentColor" stroke-linecap="round" stroke-linejoin="round" stroke-width="2"/>
        <path fill="none" stroke="currentColor" stroke-linecap="round" stroke-linejoin="round" stroke-width="2" d="M9 6v5h5"/>
    </symbol>


    <symbol id="icon-calendar" xmlns="http://www.w3.org/2000/svg" fill="none" viewBox="0 0 18 19">
        <path fill="none" stroke="currentColor" stroke-linecap="round" stroke-linejoin="round" stroke-width="2" d="M1 2h16v14a2 2 0 0 1-2 2H3a2 2 0 0 1-2-2V2ZM1 6h16M13 1v2M5 1v2"/>
    </symbol>

    <symbol id="icon-iso" xmlns="http://www.w3.org/2000/svg" fill="none" viewBox="0 0 19 18">
        <path fill="none" stroke="currentColor" stroke-linecap="round" stroke-linejoin="round" stroke-width="2" d="M14.36 17H3a2 2 0 0 1-2-2V7h3.93a2 2 0 0 0 1.664-.89L9.11 2.335A3 3 0 0 1 11.606 1h.214a1 1 0 0 1 .986 1.164L12 7h3.56a2 2 0 0 1 1.962 2.392l-1.2 6A2 2 0 0 1 14.36 17Z"/>
        <path stroke="currentColor" stroke-width="2" d="M5 7v10"/>
    </symbol>


    <symbol id="icon-truck" xmlns="http://www.w3.org/2000/svg" fill="none" viewBox="0 0 22 20">
        <path fill="currentColor" d="M1 1V0a1 1 0 0 0-1 1h1Zm11 0h1a1 1 0 0 0-1-1v1Zm0 6V6a1 1 0 0 0-1 1h1ZM1 2h11V0H1v2Zm10-1v16h2V1h-2ZM2 15V1H0v14h2Zm10-7h5V6h-5v2Zm8 3v4h2v-4h-2Zm-7 6V7h-2v10h2Zm4.707.707a1 1 0 0 1-1.414 0l-1.414 1.414a3 3 0 0 0 4.242 0l-1.414-1.414Zm-1.414-1.414a1 1 0 0 1 1.414 0l1.414-1.414a3 3 0 0 0-4.242 0l1.414 1.414ZM5.707 17.707a1 1 0 0 1-1.414 0l-1.414 1.414a3 3 0 0 0 4.242 0l-1.414-1.414Zm-1.414-1.414a1 1 0 0 1 1.414 0l1.414-1.414a3 3 0 0 0-4.242 0l1.414 1.414Zm13.414 0c.196.195.293.45.293.707h2c0-.766-.293-1.536-.879-2.121l-1.414 1.414ZM18 17a.994.994 0 0 1-.293.707l1.414 1.414A2.994 2.994 0 0 0 20 17h-2Zm-3-1h-3v2h3v-2Zm1.293 1.707A.994.994 0 0 1 16 17h-2c0 .766.293 1.536.879 2.121l1.414-1.414ZM16 17c0-.258.097-.512.293-.707l-1.414-1.414A2.994 2.994 0 0 0 14 17h2Zm-11.707.707A.994.994 0 0 1 4 17H2c0 .766.293 1.536.879 2.121l1.414-1.414ZM4 17c0-.258.097-.512.293-.707l-1.414-1.414A2.994 2.994 0 0 0 2 17h2Zm8-1H7v2h5v-2Zm-6.293.293c.196.195.293.45.293.707h2c0-.766-.293-1.536-.879-2.121l-1.414 1.414ZM6 17a.994.994 0 0 1-.293.707l1.414 1.414A2.994 2.994 0 0 0 8 17H6Zm14-2a1 1 0 0 1-1 1v2a3 3 0 0 0 3-3h-2Zm-3-7a3 3 0 0 1 3 3h2a5 5 0 0 0-5-5v2ZM0 15a3 3 0 0 0 3 3v-2a1 1 0 0 1-1-1H0Z"/>
        <path stroke="currentColor" stroke-linecap="round" stroke-linejoin="round" stroke-width="2" d="M1 6h3M1 10h5"/>
    </symbol>

    <symbol id="icon-rigth-corner" xmlns="http://www.w3.org/2000/svg" fill="none" viewBox="0 0 16 16">
        <path fill="currentColor" d="M14 13.5a.5.5 0 0 1-.5.5h-6a.5.5 0 0 1 0-1h4.793L2.146 2.854a.5.5 0 1 1 .708-.708L13 12.293V7.5a.5.5 0 0 1 1 0z"/>
    </symbol>

    <symbol id="icon-square" viewBox="0 0 24 24" fill="none" xmlns="http://www.w3.org/2000/svg">
        <rect fill="none" x="1" y="1" width="22" height="22" stroke="currentColor" stroke-width="2"/>
    </symbol>

    <symbol id="icon-rectangle" viewBox="0 0 48 24" fill="none" xmlns="http://www.w3.org/2000/svg">
        <rect fill="none" x="1" y="1" width="46" height="22" stroke="currentColor" stroke-width="4"/>
    </symbol>

    <symbol id="icon-circle" viewBox="0 0 24 24" fill="none" xmlns="http://www.w3.org/2000/svg">
        <circle fill="none" cx="12" cy="12" r="11" stroke="currentColor" stroke-width="2"/>
    </symbol>

    <symbol id="icon-circle-v2" viewBox="0 0 24 24" fill="none" xmlns="http://www.w3.org/2000/svg">
        <rect fill="none" x="1" y="1" width="22" height="22" rx="11" stroke="currentColor" stroke-width="2"/>
        <path d="M4.57386 15V9.18182H6.80114C7.22159 9.18182 7.57102 9.24811 7.84943 9.38068C8.12973 9.51136 8.33902 9.69034 8.47727 9.91761C8.61742 10.1449 8.6875 10.4025 8.6875 10.6903C8.6875 10.9271 8.64205 11.1297 8.55114 11.2983C8.46023 11.465 8.33807 11.6004 8.18466 11.7045C8.03125 11.8087 7.85985 11.8835 7.67045 11.929V11.9858C7.87689 11.9972 8.07481 12.0606 8.2642 12.1761C8.45549 12.2898 8.61174 12.4508 8.73295 12.6591C8.85417 12.8674 8.91477 13.1193 8.91477 13.4148C8.91477 13.7159 8.84186 13.9867 8.69602 14.2273C8.55019 14.4659 8.33049 14.6544 8.03693 14.7926C7.74337 14.9309 7.37405 15 6.92898 15H4.57386ZM5.62784 14.1193H6.76136C7.14394 14.1193 7.41951 14.0464 7.58807 13.9006C7.75852 13.7528 7.84375 13.5634 7.84375 13.3324C7.84375 13.16 7.80114 13.0047 7.71591 12.8665C7.63068 12.7263 7.50947 12.6165 7.35227 12.5369C7.19508 12.4555 7.00758 12.4148 6.78977 12.4148H5.62784V14.1193ZM5.62784 11.6562H6.67045C6.85227 11.6562 7.0161 11.6231 7.16193 11.5568C7.30777 11.4886 7.42235 11.393 7.50568 11.2699C7.59091 11.1449 7.63352 10.9972 7.63352 10.8267C7.63352 10.6013 7.55398 10.4157 7.39489 10.2699C7.23769 10.1241 7.00379 10.0511 6.69318 10.0511H5.62784V11.6562ZM13.5732 9.18182V10.0653H10.8857V15H9.83168V9.18182H13.5732ZM19.2116 9.18182V15H18.1662V10.0568H15.6207V15H14.5753V9.18182H19.2116Z" fill="currentColor"/>
    </symbol>

    <symbol id="icon-rectangle-rounded" viewBox="0 0 48 24" fill="none" xmlns="http://www.w3.org/2000/svg">
        <rect fill="none" x="1" y="1" width="46" height="22" rx="9" stroke="currentColor" stroke-width="4"/>
    </symbol>

    <symbol id="icon-elipse" viewBox="0 0 48 24" fill="none" xmlns="http://www.w3.org/2000/svg">
        <path fill="none" d="M47 12C47 14.7309 44.7602 17.4724 40.5233 19.5909C36.3463 21.6794 30.5058 23 24 23C17.4942 23 11.6537 21.6794 7.47665 19.5909C3.23981 17.4724 1 14.7309 1 12C1 9.26912 3.23981 6.52757 7.47665 4.40915C11.6537 2.32063 17.4942 1 24 1C30.5058 1 36.3463 2.32063 40.5233 4.40915C44.7602 6.52757 47 9.26912 47 12Z" stroke="currentColor" stroke-width="4"/>
    </symbol>

    <symbol id="icon-house-check" xmlns="http://www.w3.org/2000/svg" fill="none" viewBox="0 0 20 20">
        <path fill="none" stroke="currentColor" stroke-linecap="round" stroke-linejoin="round" stroke-width="2" d="M17 8v9a2 2 0 0 1-2 2H5a2 2 0 0 1-2-2V8m16 2-9-9-9 9"/>
    </symbol>

    <svg id="icon-scissors" xmlns="http://www.w3.org/2000/svg" fill="none" viewBox="0 0 18 22">
        <path stroke="currentColor" stroke-linecap="round" stroke-linejoin="round" stroke-width="2" d="M10 3H3a2 2 0 0 0-2 2v12a2 2 0 0 0 2 2h7m4-16h1a2 2 0 0 1 2 2v1m0 10v1a2 2 0 0 1-2 2h-1m3-9v2M9 1v20"/>
    </svg>

    <symbol id="icon-calc" xmlns="http://www.w3.org/2000/svg" fill="none" viewBox="0 0 16 20">
        <path fill="none" stroke="currentColor" stroke-linejoin="round" stroke-width="2" d="M1 1h14v16a2 2 0 0 1-2 2H3a2 2 0 0 1-2-2V1Z"/>
        <path stroke="currentColor" stroke-linecap="round" stroke-width="2" d="M1 7h14M5 11h1M10 11h1M5 15h1M10 15h1"/>
    </symbol>

    <symbol id="icon-quality" xmlns="http://www.w3.org/2000/svg" fill="none" viewBox="0 0 16 20">
        <path fill="none" stroke="currentColor" stroke-linejoin="round" stroke-width="2" d="M1.606 3.74 8 1l6.394 2.74a1 1 0 0 1 .606.92v6.858a6 6 0 0 1-3.023 5.21L8 19l-3.977-2.273A6 6 0 0 1 1 11.518V4.66a1 1 0 0 1 .606-.919Z"/>
    </symbol>



</svg>