<svg>
    <symbol id="logo" xmlns="http://www.w3.org/2000/svg" fill="none" viewBox="0 0 368 120">
        <path fill="#2C80BE" d="M316.981 0a59.676 59.676 0 0 1 35.142 11.381l-17.771 38.84c-5.154-2.592-11.073-4.068-17.369-4.068-19.956 0-36.135 14.81-36.135 33.076 0 18.268 16.179 33.078 36.135 33.078 15.205 0 28.214-8.598 33.55-20.768h17.472C357.436 108.619 338.539 120 316.983 120c-33.118 0-59.967-26.863-59.967-59.999C257.016 26.863 283.865 0 316.983 0h-.002Z"/>
        <path fill="currentColor" d="M66.062 76.911c0 1.713-.353 3.297-1.058 4.756a11.835 11.835 0 0 1-2.864 3.772c-1.206 1.056-2.623 1.886-4.254 2.488-1.631.603-3.375.903-5.229.903h-7.564v13.884H36.53V64.668h15.96c2.04 0 3.893.284 5.562.847 1.67.564 3.096 1.375 4.284 2.434a10.77 10.77 0 0 1 2.753 3.853c.65 1.512.974 3.216.974 5.111v-.002Zm-8.677-.163c0-1.531-.463-2.669-1.392-3.417-.925-.746-2.242-1.12-3.947-1.12h-6.953v9.074h7.176c1.408 0 2.614-.41 3.614-1.23 1-.821 1.502-1.923 1.502-3.307Zm26.362-12.353c2.336 0 4.44.374 6.312 1.12 1.873.747 3.466 1.776 4.782 3.089 1.317 1.312 2.327 2.88 3.032 4.7.705 1.822 1.057 3.79 1.057 5.903v8.965c0 2.26-.362 4.31-1.084 6.15-.724 1.84-1.743 3.408-3.057 4.701-1.317 1.293-2.912 2.287-4.783 2.98-1.873.694-3.957 1.039-6.257 1.039-2.52 0-4.717-.4-6.59-1.202-1.874-.801-3.43-1.886-4.672-3.254a13.366 13.366 0 0 1-2.78-4.756 17.507 17.507 0 0 1-.918-5.658v-8.965c0-1.967.306-3.844.918-5.629a13.42 13.42 0 0 1 2.78-4.73c1.242-1.367 2.799-2.45 4.672-3.253 1.873-.802 4.07-1.203 6.59-1.203l-.002.003Zm-.084 7.87c-1.084 0-2.012.173-2.792.519-.786.345-1.436.81-1.954 1.394a5.888 5.888 0 0 0-1.178 1.996 6.884 6.884 0 0 0-.389 2.268v10.333c0 .837.13 1.638.389 2.404a5.808 5.808 0 0 0 1.178 2.023c.518.583 1.168 1.058 1.954 1.42.78.365 1.705.547 2.792.547 2.084 0 3.698-.61 4.83-1.83 1.14-1.222 1.705-2.743 1.705-4.564V78.442c0-1.677-.566-3.124-1.705-4.346-1.132-1.221-2.744-1.83-4.83-1.83Zm58.814 11.096c0 2.15-.353 4.182-1.058 6.095-.705 1.912-1.715 3.59-3.031 5.03-1.317 1.44-2.938 2.579-4.867 3.416-1.928.838-4.115 1.275-6.561 1.313v3.499h-7.953v-3.499c-2.634-.218-4.912-.766-6.84-1.639s-3.523-2.004-4.782-3.388a13.052 13.052 0 0 1-2.782-4.838c-.593-1.84-.89-3.837-.89-5.987s.324-4.19.973-6.12c.648-1.932 1.612-3.636 2.893-5.112 1.278-1.476 2.873-2.651 4.782-3.525 1.909-.873 4.125-1.349 6.646-1.42V64.67h7.953v2.514c2.669.183 4.986.701 6.952 1.558 1.967.857 3.588 1.987 4.867 3.388 1.278 1.404 2.216 3.052 2.808 4.948.592 1.896.89 3.99.89 6.287v-.005Zm-15.517 9.238c1.595-.11 2.873-.42 3.837-.928.964-.511 1.705-1.176 2.223-1.997.518-.82.854-1.768 1.003-2.843.148-1.075.223-2.251.223-3.525 0-.984-.084-2.013-.25-3.088a8.57 8.57 0 0 0-1.057-3.007 6.866 6.866 0 0 0-2.226-2.323c-.945-.619-2.197-.965-3.753-1.039V92.6Zm-7.953-18.64c-2.559.33-4.394 1.284-5.507 2.87-1.113 1.587-1.631 3.744-1.556 6.48 0 1.276.11 2.45.333 3.524.223 1.075.593 2.014 1.113 2.815.518.801 1.233 1.459 2.142 1.968.909.51 2.067.837 3.475.983V73.96Zm29.698 28.755V64.668h8.565v23.833h.167l7.953-12.19 8.121-11.643h7.063v38.046h-8.564V79.699h-.168l-5.672 9.02-9.845 13.995h-7.62Zm104.337-11.588c0 3.789-1.197 6.76-3.588 8.91-2.391 2.15-5.72 3.225-9.985 3.225h-16.296V65.216h8.564V79.81h7.843c2.225 0 4.18.319 5.868.957 1.686.638 3.097 1.485 4.226 2.541 1.132 1.056 1.974 2.26 2.531 3.61.553 1.333.837 2.764.834 4.208h.003Zm-8.678.329c0-1.056-.388-2.004-1.168-2.841-.779-.838-2.076-1.258-3.892-1.258h-7.619v8.363h7.619c1.818 0 3.115-.437 3.892-1.313.78-.873 1.168-1.86 1.168-2.951ZM21.211 102.85V79.651c0-4.144-.252-7.326-6.248-7.326H8.55v30.525H0V64.803h19.525c5.137 0 10.128 4.396 10.128 10.291v27.756H21.21Zm173.65 0V79.651c0-4.144.252-7.326 6.247-7.326h6.414v30.525h8.549V64.803h-19.524c-5.14 0-10.128 4.396-10.128 10.291v27.756h8.442Z"/>
    </symbol>
</svg>