<svg>
    <symbol id="logo" xmlns="http://www.w3.org/2000/svg" fill="none" viewBox="0 0 368 120">
        <path fill="#2C80BE" d="M316.981 0a59.676 59.676 0 0 1 35.142 11.381l-17.771 38.84c-5.154-2.592-11.073-4.068-17.369-4.068-19.956 0-36.135 14.81-36.135 33.076 0 18.268 16.179 33.078 36.135 33.078 15.205 0 28.214-8.598 33.55-20.768h17.472C357.436 108.619 338.539 120 316.983 120c-33.118 0-59.967-26.863-59.967-59.999C257.016 26.863 283.865 0 316.983 0h-.002Z"/>
        <path fill="currentColor" d="M66.062 76.911c0 1.713-.353 3.297-1.058 4.756a11.835 11.835 0 0 1-2.864 3.772c-1.206 1.056-2.623 1.886-4.254 2.488-1.631.603-3.375.903-5.229.903h-7.564v13.884H36.53V64.668h15.96c2.04 0 3.893.284 5.562.847 1.67.564 3.096 1.375 4.284 2.434a10.77 10.77 0 0 1 2.753 3.853c.65 1.512.974 3.216.974 5.111v-.002Zm-8.677-.163c0-1.531-.463-2.669-1.392-3.417-.925-.746-2.242-1.12-3.947-1.12h-6.953v9.074h7.176c1.408 0 2.614-.41 3.614-1.23 1-.821 1.502-1.923 1.502-3.307Zm26.362-12.353c2.336 0 4.44.374 6.312 1.12 1.873.747 3.466 1.776 4.782 3.089 1.317 1.312 2.327 2.88 3.032 4.7.705 1.822 1.057 3.79 1.057 5.903v8.965c0 2.26-.362 4.31-1.084 6.15-.724 1.84-1.743 3.408-3.057 4.701-1.317 1.293-2.912 2.287-4.783 2.98-1.873.694-3.957 1.039-6.257 1.039-2.52 0-4.717-.4-6.59-1.202-1.874-.801-3.43-1.886-4.672-3.254a13.366 13.366 0 0 1-2.78-4.756 17.507 17.507 0 0 1-.918-5.658v-8.965c0-1.967.306-3.844.918-5.629a13.42 13.42 0 0 1 2.78-4.73c1.242-1.367 2.799-2.45 4.672-3.253 1.873-.802 4.07-1.203 6.59-1.203l-.002.003Zm-.084 7.87c-1.084 0-2.012.173-2.792.519-.786.345-1.436.81-1.954 1.394a5.888 5.888 0 0 0-1.178 1.996 6.884 6.884 0 0 0-.389 2.268v10.333c0 .837.13 1.638.389 2.404a5.808 5.808 0 0 0 1.178 2.023c.518.583 1.168 1.058 1.954 1.42.78.365 1.705.547 2.792.547 2.084 0 3.698-.61 4.83-1.83 1.14-1.222 1.705-2.743 1.705-4.564V78.442c0-1.677-.566-3.124-1.705-4.346-1.132-1.221-2.744-1.83-4.83-1.83Zm58.814 11.096c0 2.15-.353 4.182-1.058 6.095-.705 1.912-1.715 3.59-3.031 5.03-1.317 1.44-2.938 2.579-4.867 3.416-1.928.838-4.115 1.275-6.561 1.313v3.499h-7.953v-3.499c-2.634-.218-4.912-.766-6.84-1.639s-3.523-2.004-4.782-3.388a13.052 13.052 0 0 1-2.782-4.838c-.593-1.84-.89-3.837-.89-5.987s.324-4.19.973-6.12c.648-1.932 1.612-3.636 2.893-5.112 1.278-1.476 2.873-2.651 4.782-3.525 1.909-.873 4.125-1.349 6.646-1.42V64.67h7.953v2.514c2.669.183 4.986.701 6.952 1.558 1.967.857 3.588 1.987 4.867 3.388 1.278 1.404 2.216 3.052 2.808 4.948.592 1.896.89 3.99.89 6.287v-.005Zm-15.517 9.238c1.595-.11 2.873-.42 3.837-.928.964-.511 1.705-1.176 2.223-1.997.518-.82.854-1.768 1.003-2.843.148-1.075.223-2.251.223-3.525 0-.984-.084-2.013-.25-3.088a8.57 8.57 0 0 0-1.057-3.007 6.866 6.866 0 0 0-2.226-2.323c-.945-.619-2.197-.965-3.753-1.039V92.6Zm-7.953-18.64c-2.559.33-4.394 1.284-5.507 2.87-1.113 1.587-1.631 3.744-1.556 6.48 0 1.276.11 2.45.333 3.524.223 1.075.593 2.014 1.113 2.815.518.801 1.233 1.459 2.142 1.968.909.51 2.067.837 3.475.983V73.96Zm29.698 28.755V64.668h8.565v23.833h.167l7.953-12.19 8.121-11.643h7.063v38.046h-8.564V79.699h-.168l-5.672 9.02-9.845 13.995h-7.62Zm104.337-11.588c0 3.789-1.197 6.76-3.588 8.91-2.391 2.15-5.72 3.225-9.985 3.225h-16.296V65.216h8.564V79.81h7.843c2.225 0 4.18.319 5.868.957 1.686.638 3.097 1.485 4.226 2.541 1.132 1.056 1.974 2.26 2.531 3.61.553 1.333.837 2.764.834 4.208h.003Zm-8.678.329c0-1.056-.388-2.004-1.168-2.841-.779-.838-2.076-1.258-3.892-1.258h-7.619v8.363h7.619c1.818 0 3.115-.437 3.892-1.313.78-.873 1.168-1.86 1.168-2.951ZM21.211 102.85V79.651c0-4.144-.252-7.326-6.248-7.326H8.55v30.525H0V64.803h19.525c5.137 0 10.128 4.396 10.128 10.291v27.756H21.21Zm173.65 0V79.651c0-4.144.252-7.326 6.247-7.326h6.414v30.525h8.549V64.803h-19.524c-5.14 0-10.128 4.396-10.128 10.291v27.756h8.442Z"/>
    </symbol>

    <symbol viewBox="0 0 24 24" fill="none" id="icon-map" xmlns="http://www.w3.org/2000/svg">
        <path fill-rule="evenodd" clip-rule="evenodd" d="M1 1.27686L8.95954 5.82516L14.9595 1.82516L23 6.41971V22.7232L15.0405 18.1749L9.04046 22.1749L1 17.5804V1.27686ZM16 16.4197L21 19.2769V7.58036L16 4.72321V16.4197ZM14 4.86855V16.4649L10 19.1315V7.53522L14 4.86855ZM8 7.58036V19.2769L3 16.4197V4.72321L8 7.58036Z" fill="white"/>
    </symbol>

    <symbol viewBox="0 0 24 24" fill="none" id="icon-work" xmlns="http://www.w3.org/2000/svg">
        <path d="M13 7V12.0858L16.4142 15.5L15 16.9142L11 12.9142V7H13Z" fill="white"/>
        <path fill-rule="evenodd" clip-rule="evenodd" d="M1 12C1 5.92487 5.92487 1 12 1C18.0751 1 23 5.92487 23 12C23 18.0751 18.0751 23 12 23C5.92487 23 1 18.0751 1 12ZM12 3C7.02944 3 3 7.02944 3 12C3 16.9706 7.02944 21 12 21C16.9706 21 21 16.9706 21 12C21 7.02944 16.9706 3 12 3Z" fill="white"/>
    </symbol>

    <symbol viewBox="0 0 24 24" fill="none" id="icon-13" xmlns="http://www.w3.org/2000/svg">
        <path fill-rule="evenodd" clip-rule="evenodd" d="M8 1V3H16V1H18V3H22V23H2V3H6V1H8ZM4 5V7H20V5H4ZM20 9H4V21H20V9Z" fill="white"/>
        <path d="M9.96484 11V19H8.51563V12.4102H8.46875L6.59766 13.6055V12.2773L8.58594 11H9.96484ZM14.8672 19.1094C14.3047 19.1094 13.8047 19.013 13.3672 18.8203C12.9323 18.6276 12.5885 18.3594 12.3359 18.0156C12.0833 17.6719 11.9492 17.2747 11.9336 16.8242H13.4023C13.4154 17.0404 13.487 17.2292 13.6172 17.3906C13.7474 17.5495 13.9206 17.6732 14.1367 17.7617C14.3529 17.8503 14.5951 17.8945 14.8633 17.8945C15.1497 17.8945 15.4036 17.8451 15.625 17.7461C15.8464 17.6445 16.0195 17.5039 16.1445 17.3242C16.2695 17.1445 16.3307 16.9375 16.3281 16.7031C16.3307 16.4609 16.2682 16.2474 16.1406 16.0625C16.013 15.8776 15.8281 15.7331 15.5859 15.6289C15.3464 15.5247 15.0573 15.4727 14.7188 15.4727H14.0117V14.3555H14.7188C14.9974 14.3555 15.2409 14.3073 15.4492 14.2109C15.6602 14.1146 15.8255 13.9792 15.9453 13.8047C16.0651 13.6276 16.1237 13.4232 16.1211 13.1914C16.1237 12.9648 16.0729 12.7682 15.9688 12.6016C15.8672 12.4323 15.7227 12.3008 15.5352 12.207C15.3503 12.1133 15.1328 12.0664 14.8828 12.0664C14.638 12.0664 14.4115 12.1107 14.2031 12.1992C13.9948 12.2878 13.8268 12.4141 13.6992 12.5781C13.5716 12.7396 13.5039 12.9323 13.4961 13.1562H12.1016C12.112 12.7083 12.2409 12.3151 12.4883 11.9766C12.7383 11.6354 13.0716 11.3698 13.4883 11.1797C13.9049 10.987 14.3724 10.8906 14.8906 10.8906C15.4245 10.8906 15.888 10.9909 16.2813 11.1914C16.6771 11.3893 16.9831 11.6562 17.1992 11.9922C17.4154 12.3281 17.5234 12.6992 17.5234 13.1055C17.526 13.556 17.3932 13.9336 17.125 14.2383C16.8594 14.543 16.5104 14.7422 16.0781 14.8359V14.8984C16.6406 14.9766 17.0716 15.1849 17.3711 15.5234C17.6732 15.8594 17.8229 16.2773 17.8203 16.7773C17.8203 17.2253 17.6927 17.6263 17.4375 17.9805C17.1849 18.332 16.8359 18.6081 16.3906 18.8086C15.9479 19.0091 15.4401 19.1094 14.8672 19.1094Z" fill="white"/>
    </symbol>

    <symbol viewBox="0 0 24 24" fill="none" id="icon-iso" xmlns="http://www.w3.org/2000/svg">
        <path fill-rule="evenodd" clip-rule="evenodd" d="M3 1H14.4142L21 7.58579V23H3V1ZM5 3V21H19V9H13V3H5ZM15 4.41421L17.5858 7H15V4.41421Z" fill="white"/>
        <path d="M7.42436 14.9091V20H6.50213V14.9091H7.42436ZM11.1897 16.3086C11.1665 16.0915 11.0687 15.9225 10.8964 15.8015C10.7257 15.6805 10.5036 15.62 10.2302 15.62C10.038 15.62 9.87308 15.649 9.73553 15.707C9.59798 15.765 9.49275 15.8437 9.41983 15.9432C9.34692 16.0426 9.30963 16.1561 9.30797 16.2837C9.30797 16.3898 9.332 16.4818 9.38006 16.5597C9.42978 16.6375 9.49689 16.7038 9.58141 16.7585C9.66593 16.8116 9.75956 16.8563 9.8623 16.8928C9.96505 16.9292 10.0686 16.9599 10.173 16.9847L10.6503 17.104C10.8425 17.1488 11.0273 17.2093 11.2046 17.2855C11.3836 17.3617 11.5435 17.4579 11.6844 17.5739C11.8269 17.6899 11.9396 17.8299 12.0225 17.994C12.1053 18.158 12.1468 18.3503 12.1468 18.5707C12.1468 18.869 12.0705 19.1316 11.9181 19.3587C11.7656 19.584 11.5452 19.7605 11.2568 19.8881C10.9701 20.0141 10.623 20.0771 10.2153 20.0771C9.81922 20.0771 9.47535 20.0157 9.18368 19.8931C8.89367 19.7705 8.66664 19.5915 8.50257 19.3562C8.34017 19.1209 8.25234 18.8342 8.23908 18.4961H9.1464C9.15965 18.6734 9.21434 18.8209 9.31046 18.9386C9.40658 19.0562 9.53169 19.1441 9.68581 19.2021C9.84159 19.2601 10.0156 19.2891 10.2078 19.2891C10.4084 19.2891 10.584 19.2592 10.7348 19.1996C10.8873 19.1383 11.0066 19.0537 11.0928 18.946C11.1789 18.8366 11.2229 18.709 11.2245 18.5632C11.2229 18.4306 11.1839 18.3213 11.1077 18.2351C11.0315 18.1473 10.9246 18.0743 10.787 18.0163C10.6511 17.9567 10.492 17.9036 10.3097 17.8572L9.73056 17.7081C9.31129 17.6004 8.97985 17.4371 8.73624 17.2184C8.49429 16.998 8.37331 16.7055 8.37331 16.3409C8.37331 16.041 8.45452 15.7783 8.61692 15.5529C8.78098 15.3275 9.00388 15.1527 9.2856 15.0284C9.56732 14.9025 9.88633 14.8395 10.2426 14.8395C10.6039 14.8395 10.9204 14.9025 11.1922 15.0284C11.4656 15.1527 11.6802 15.3259 11.836 15.5479C11.9918 15.7683 12.0722 16.0219 12.0771 16.3086H11.1897ZM17.5179 17.4545C17.5179 18.0031 17.4152 18.4729 17.2097 18.864C17.0059 19.2534 16.7275 19.5517 16.3745 19.7589C16.0231 19.966 15.6246 20.0696 15.1788 20.0696C14.733 20.0696 14.3336 19.966 13.9806 19.7589C13.6293 19.5501 13.3509 19.2509 13.1454 18.8615C12.9416 18.4704 12.8397 18.0014 12.8397 17.4545C12.8397 16.906 12.9416 16.437 13.1454 16.0476C13.3509 15.6565 13.6293 15.3574 13.9806 15.1502C14.3336 14.9431 14.733 14.8395 15.1788 14.8395C15.6246 14.8395 16.0231 14.9431 16.3745 15.1502C16.7275 15.3574 17.0059 15.6565 17.2097 16.0476C17.4152 16.437 17.5179 16.906 17.5179 17.4545ZM16.5907 17.4545C16.5907 17.0684 16.5302 16.7428 16.4093 16.4776C16.29 16.2108 16.1242 16.0095 15.9121 15.8736C15.7 15.736 15.4556 15.6673 15.1788 15.6673C14.902 15.6673 14.6576 15.736 14.4455 15.8736C14.2334 16.0095 14.0668 16.2108 13.9458 16.4776C13.8265 16.7428 13.7669 17.0684 13.7669 17.4545C13.7669 17.8407 13.8265 18.1671 13.9458 18.4339C14.0668 18.6991 14.2334 18.9004 14.4455 19.038C14.6576 19.1739 14.902 19.2418 15.1788 19.2418C15.4556 19.2418 15.7 19.1739 15.9121 19.038C16.1242 18.9004 16.29 18.6991 16.4093 18.4339C16.5302 18.1671 16.5907 17.8407 16.5907 17.4545Z" fill="white"/>
    </symbol>

    <symbol viewBox="0 0 24 24" fill="none" id="icon-free" xmlns="http://www.w3.org/2000/svg">
        <path d="M7 15H17V13H7V15Z" fill="#2c80be"/>
        <path d="M7 11H17V9H7V11Z" fill="#2c80be"/>
        <path d="M7 7H12V5H7V7Z" fill="#2c80be"/>
        <path fill-rule="evenodd" clip-rule="evenodd" d="M3 22.8925L6.94629 20.2616L9.5 22.3046L12 20.3046L14.5 22.3046L17.0537 20.2616L21 22.8925V1H3V22.8925ZM5 19.1554V3H19V19.1554L16.9463 17.7863L14.5 19.7433L12 17.7433L9.5 19.7433L7.05371 17.7863L5 19.1554Z" fill="#2c80be"/>
    </symbol>

    <symbol viewBox="0 0 24 24" fill="none" id="icon-percent" xmlns="http://www.w3.org/2000/svg">
        <path d="M22.4144 2.99991L3.00015 22.4141L1.58594 20.9999L21.0002 1.58569L22.4144 2.99991Z" fill="#2c80be"/>
        <path fill-rule="evenodd" clip-rule="evenodd" d="M2.00015 6.49991C2.00015 4.01463 4.01487 1.99991 6.50015 1.99991C8.98543 1.99991 11.0002 4.01463 11.0002 6.49991C11.0002 8.98519 8.98543 10.9999 6.50015 10.9999C4.01487 10.9999 2.00015 8.98519 2.00015 6.49991ZM6.50015 3.99991C5.11944 3.99991 4.00015 5.1192 4.00015 6.49991C4.00015 7.88062 5.11944 8.99991 6.50015 8.99991C7.88086 8.99991 9.00015 7.88062 9.00015 6.49991C9.00015 5.1192 7.88086 3.99991 6.50015 3.99991Z" fill="#2c80be"/>
        <path fill-rule="evenodd" clip-rule="evenodd" d="M13.0002 17.4999C13.0002 15.0146 15.0149 12.9999 17.5002 12.9999C19.9854 12.9999 22.0002 15.0146 22.0002 17.4999C22.0002 19.9852 19.9854 21.9999 17.5002 21.9999C15.0149 21.9999 13.0002 19.9852 13.0002 17.4999ZM17.5002 14.9999C16.1194 14.9999 15.0002 16.1192 15.0002 17.4999C15.0002 18.8806 16.1194 19.9999 17.5002 19.9999C18.8809 19.9999 20.0002 18.8806 20.0002 17.4999C20.0002 16.1192 18.8809 14.9999 17.5002 14.9999Z" fill="#2c80be"/>
    </symbol>

    <symbol viewBox="0 0 24 24" fill="none" id="icon-truck" xmlns="http://www.w3.org/2000/svg">
        <path fill-rule="evenodd" clip-rule="evenodd" d="M1 3H15V7H18.9538L23 11.6243V19H20.8293C20.4175 20.1652 19.3062 21 18 21C16.6938 21 15.5825 20.1652 15.1707 19H8.32929C7.91746 20.1652 6.80622 21 5.5 21C4.19378 21 3.08254 20.1652 2.67071 19H1V3ZM3 14V16.3411C3.53746 15.5328 4.45651 15 5.5 15C6.80622 15 7.91746 15.8348 8.32929 17H13V14H3ZM13 12H3V5H13V12ZM15 14V17H15.1707C15.5825 15.8348 16.6938 15 18 15C19.3062 15 20.4175 15.8348 20.8293 17H21V14H15ZM20.6712 12H15V9H18.0462L20.6712 12ZM19 18C19 17.4477 18.5523 17 18 17C17.4477 17 17 17.4477 17 18C17 18.5523 17.4477 19 18 19C18.5523 19 19 18.5523 19 18ZM5.5 17C4.94772 17 4.5 17.4477 4.5 18C4.5 18.5523 4.94772 19 5.5 19C6.05228 19 6.5 18.5523 6.5 18C6.5 17.4477 6.05228 17 5.5 17Z" fill="#2c80be"/>
    </symbol>

    <symbol viewBox="0 0 24 24" fill="none" id="icon-sign" xmlns="http://www.w3.org/2000/svg">
        <path fill-rule="evenodd" clip-rule="evenodd" d="M11.0004 23V19H4.51973L1.71973 15.5L4.51973 12H11.0004V10H3.00035V3H11.0004V1H13.0004V3H19.481L22.281 6.5L19.481 10H13.0004V12H21.0004V19H13.0004V23H11.0004ZM19.0004 17V14H5.48098L4.28098 15.5L5.48098 17H19.0004ZM18.5197 8L19.7197 6.5L18.5197 5H5.00035V8H18.5197Z" fill="#2c80be"/>
    </symbol>
</svg>